<?xml version="1.0" encoding="iso-8859-1"?>
<!-- Generator: Adobe Illustrator 19.0.0, SVG Export Plug-In . SVG Version: 6.00 Build 0)  -->
<svg version="1.1" id="Layer_1" xmlns="http://www.w3.org/2000/svg" xmlns:xlink="http://www.w3.org/1999/xlink" x="0px" y="0px"
	 viewBox="0 0 512.009 512.009" style="enable-background:new 0 0 512.009 512.009;" xml:space="preserve">
<g>
	<g>
		<g>
			<path d="M120.988,237.954c4.386,18.611,18.91,76.877,34.048,99.584c10.974,16.452,36.668,54.997,100.966,54.997
				s90.001-38.545,100.966-54.997c15.147-22.707,29.67-80.973,34.048-99.584c10.718-3.055,18.586-12.937,18.586-24.619v-34.133
				c0-10.291-6.818-25.6-25.6-25.6c-4.71,0-8.533,3.823-8.533,8.533s3.823,8.533,8.533,8.533c6.869,0,8.431,4.693,8.533,8.533
				v34.133c0,4.702-3.831,8.533-8.533,8.533c-4.002,0-7.458,2.782-8.328,6.682c-0.162,0.751-16.905,75.52-32.905,99.516
				c-10.257,15.386-31.599,47.403-86.767,47.403s-76.51-32.017-86.767-47.403c-15.983-23.979-32.734-98.765-32.905-99.516
				c-0.862-3.9-4.326-6.682-8.329-6.682c-4.702,0-8.533-3.831-8.533-8.533v-34.031c0.102-3.942,1.664-8.636,8.533-8.636
				c4.71,0,8.533-3.823,8.533-8.533s-3.823-8.533-8.533-8.533c-18.782,0-25.6,15.309-25.6,25.6v34.133
				C102.402,225.017,110.27,234.899,120.988,237.954z"/>
			<path d="M298.669,230.402c4.71,0,8.533-3.823,8.533-8.533h8.533c4.71,0,8.533-3.823,8.533-8.533c0-4.71-3.823-8.533-8.533-8.533
				h-34.133c-4.71,0-8.533,3.823-8.533,8.533c0,4.71,3.823,8.533,8.533,8.533h8.533
				C290.136,226.579,293.959,230.402,298.669,230.402z"/>
			<path d="M238.936,213.335c0-4.71-3.823-8.533-8.533-8.533h-34.133c-4.71,0-8.533,3.823-8.533,8.533
				c0,4.71,3.823,8.533,8.533,8.533h8.533c0,4.71,3.823,8.533,8.533,8.533c4.71,0,8.533-3.823,8.533-8.533h8.533
				C235.113,221.868,238.936,218.045,238.936,213.335z"/>
			<path d="M128.002,136.535h256c4.71,0,8.533-3.823,8.533-8.533V42.668c0-23.125-19.533-42.667-42.667-42.667H162.136
				c-23.125,0-42.667,19.541-42.667,42.667v85.333C119.469,132.712,123.292,136.535,128.002,136.535z M136.536,42.668
				c0-13.636,11.964-25.6,25.6-25.6h187.733c13.875,0,25.6,11.725,25.6,25.6v76.8H136.536V42.668z"/>
			<path d="M256.002,324.268c20.028,0,30.507-9.907,31.633-11.034c3.294-3.294,3.285-8.568,0.051-11.913
				c-3.243-3.354-8.619-3.439-12.023-0.247c-0.265,0.247-6.699,6.127-19.661,6.127c-12.774,0-19.209-5.709-19.652-6.118
				c-3.336-3.251-8.678-3.217-11.981,0.085c-3.328,3.337-3.328,8.73,0,12.066C225.504,314.361,235.983,324.268,256.002,324.268z"/>
			<path d="M511.567,500.772l-8.533-25.6c-10.436-31.275-37.7-48.307-151.151-48.503c-6.972-3.482-32.333-16.171-32.333-16.171
				c-2.739-1.365-5.999-1.161-8.542,0.538c-0.239,0.154-23.817,15.633-55.006,15.633c-30.959,0-54.775-15.488-54.997-15.633
				c-2.543-1.698-5.82-1.903-8.55-0.538l-32.333,16.179c-113.459,0.188-140.706,17.22-151.151,48.495l-8.533,25.6
				c-1.485,4.471,0.93,9.301,5.402,10.795c4.489,1.493,9.31-0.93,10.795-5.402l8.533-25.6
				c5.188-15.539,12.279-36.821,136.892-36.821h0.077c1.323,0,2.637-0.307,3.814-0.896l29.961-14.993
				c9.173,5.12,31.829,15.88,60.092,15.88c28.271,0,50.918-10.76,60.092-15.88c21.956,10.982,29.884,14.874,33.775,15.625v0.256
				c124.681,0,131.789,21.291,136.969,36.83l8.533,25.6c1.195,3.576,4.523,5.837,8.098,5.837c0.896,0,1.809-0.137,2.705-0.435
				C510.646,510.073,513.061,505.243,511.567,500.772z"/>
			<path d="M281.858,460.802h-0.085c-4.71,0-8.491,3.823-8.491,8.533c0,4.71,3.866,8.533,8.576,8.533
				c4.719,0,8.533-3.823,8.533-8.533C290.392,464.625,286.577,460.802,281.858,460.802z"/>
			<path d="M230.658,460.802h-0.085c-4.71,0-8.491,3.823-8.491,8.533c0,4.71,3.866,8.533,8.576,8.533
				c4.719,0,8.533-3.823,8.533-8.533C239.192,464.625,235.377,460.802,230.658,460.802z"/>
			<path d="M281.858,494.935h-0.085c-4.71,0-8.491,3.823-8.491,8.533s3.866,8.533,8.576,8.533c4.719,0,8.533-3.823,8.533-8.533
				S286.577,494.935,281.858,494.935z"/>
			<path d="M230.658,494.935h-0.085c-4.71,0-8.491,3.823-8.491,8.533s3.866,8.533,8.576,8.533c4.719,0,8.533-3.823,8.533-8.533
				S235.377,494.935,230.658,494.935z"/>
		</g>
	</g>
</g>
<g>
</g>
<g>
</g>
<g>
</g>
<g>
</g>
<g>
</g>
<g>
</g>
<g>
</g>
<g>
</g>
<g>
</g>
<g>
</g>
<g>
</g>
<g>
</g>
<g>
</g>
<g>
</g>
<g>
</g>
</svg>
